<svg version="1.1" id="Layer_1" xmlns="http://www.w3.org/2000/svg" xmlns:xlink="http://www.w3.org/1999/xlink" x="0px" y="0px"
	 width="100%" viewBox="0 0 1024 1024" enable-background="new 0 0 1024 1024" xml:space="preserve">
<path fill="#060606" opacity="1.000000" stroke="none" 
	d="
M281.005493,791.998657 
	C281.005402,797.817017 281.005402,803.135681 281.005402,809.658081 
	C275.756042,808.305481 270.682892,807.685486 266.193420,805.727295 
	C241.489258,794.951782 226.030182,776.511719 222.092072,749.556030 
	C220.730408,740.235535 221.085953,730.653198 220.830139,721.185791 
	C220.631287,713.825989 218.978287,712.026611 211.715881,712.024963 
	C197.884933,712.021912 184.052780,712.146240 170.223373,712.001953 
	C154.267639,711.835449 142.026123,699.926941 141.914719,684.086426 
	C141.704941,654.259216 141.640640,624.428223 141.877106,594.601685 
	C142.009445,577.910278 153.890350,566.333740 170.595062,566.114563 
	C183.589996,565.944031 196.591400,566.029175 209.586868,566.215027 
	C220.102875,566.365356 220.793289,565.802368 220.793671,555.039917 
	C220.796509,475.885406 220.839264,396.730835 220.778259,317.576385 
	C220.769241,305.867859 221.576797,294.291138 226.534180,283.552765 
	C238.101959,258.495270 257.070648,242.835648 284.871094,238.899551 
	C288.641022,238.365799 292.474701,238.030060 296.279022,238.028534 
	C412.594666,237.981796 528.910339,237.979538 645.225952,238.028152 
	C648.850769,238.029678 652.635559,238.091934 656.066406,239.088135 
	C663.018738,241.106888 667.572327,245.939651 667.943481,253.333176 
	C668.502502,264.468964 668.532837,275.636047 668.595154,286.790924 
	C668.704041,306.284729 668.441162,325.782959 668.757202,345.272461 
	C669.040344,362.734009 682.447815,374.970337 700.733704,374.999146 
	C731.728882,375.047974 762.724243,375.020172 793.719482,375.041443 
	C795.715027,375.042816 797.753784,374.950775 799.698669,375.306152 
	C810.711853,377.318481 816.080322,383.640900 816.096313,394.894775 
	C816.166626,444.220428 816.189392,493.546173 816.171326,542.871887 
	C816.147278,608.694580 816.295105,674.518616 815.924377,740.339539 
	C815.722839,776.126343 786.736511,806.797546 750.971924,810.036804 
	C744.850708,810.591187 738.687195,810.936829 732.543030,810.940308 
	C621.893188,811.003174 511.243317,810.998535 400.593445,811.008728 
	C392.141846,811.009460 390.028198,808.925415 390.001160,800.455200 
	C389.975098,792.289856 390.008881,784.124329 389.991608,775.958923 
	C389.964844,763.300232 382.232391,754.784241 369.582306,754.621582 
	C346.757477,754.328125 323.923218,754.371338 301.098053,754.670105 
	C289.287445,754.824707 281.155151,763.654053 281.014404,775.504639 
	C280.951080,780.835388 281.004883,786.167542 281.005493,791.998657 
z"/>
<path fill="#070707" opacity="1.000000" stroke="none" 
	d="
M673.996704,309.000000 
	C673.995911,288.002838 673.998047,267.505707 673.993591,247.008545 
	C673.991638,238.021286 670.387695,234.402679 661.299744,234.312363 
	C654.636719,234.246124 647.962158,234.466354 641.312195,234.149658 
	C630.270874,233.623795 622.167786,225.633224 622.075073,214.644241 
	C621.853027,188.316452 621.864014,161.984573 622.058716,135.656387 
	C622.142639,124.299561 631.441589,115.056236 642.802612,114.991653 
	C672.629944,114.822113 702.459473,114.818687 732.286682,114.991730 
	C743.608887,115.057419 751.914856,123.664879 752.015930,135.012878 
	C752.158447,151.009338 752.073425,167.007767 752.098389,183.005341 
	C752.108032,189.150879 753.896606,190.953705 760.117737,190.958038 
	C788.280457,190.977676 816.443298,190.939362 844.605957,190.986282 
	C858.024780,191.008636 867.123779,199.965179 867.149963,213.413681 
	C867.233582,256.407562 866.970154,299.403473 867.319824,342.394714 
	C867.439819,357.149414 856.939453,369.747375 839.632935,369.874390 
	C793.475159,370.213043 747.312683,370.138550 701.153442,369.927795 
	C686.598755,369.861328 674.247437,356.550354 674.027100,341.494873 
	C673.871094,330.832031 673.996948,320.165100 673.996704,309.000000 
z"/>
<path fill="#070707" opacity="1.000000" stroke="none" 
	d="
M297.427917,761.038879 
	C300.625580,760.654236 303.415161,760.061462 306.207092,760.049988 
	C326.024170,759.968201 345.841705,759.993225 365.659119,760.008850 
	C379.050537,760.019409 385.835938,766.809448 385.830872,780.195312 
	C385.823822,798.846802 385.857758,817.498779 385.735291,836.149597 
	C385.661041,847.457825 381.881989,853.184448 373.097687,855.496033 
	C370.890320,856.076904 368.502045,856.146423 366.196381,856.150208 
	C345.380096,856.184692 324.563110,856.244385 303.747589,856.104492 
	C291.471344,856.021973 285.977692,850.350403 285.941711,838.000793 
	C285.883942,818.183594 286.088409,798.364502 285.872253,778.549561 
	C285.779602,770.056213 289.073029,764.214600 297.427917,761.038879 
z"/>
<path fill="#070707" opacity="1.000000" stroke="none" 
	d="
M924.002808,436.403320 
	C921.684143,443.473755 918.896301,445.840607 912.063599,445.869263 
	C886.265625,445.977386 860.466553,445.992828 834.668823,445.862488 
	C826.872742,445.823090 822.996765,441.475708 822.993164,433.588440 
	C822.985901,417.610046 822.976562,401.631622 823.000061,385.653259 
	C823.009277,379.337646 826.017883,376.267456 832.339355,375.969238 
	C837.651428,375.718597 842.966492,375.511963 848.273682,375.180450 
	C859.157410,374.500549 867.121338,369.021423 871.812439,359.431915 
	C875.225891,352.454163 879.775574,349.198730 887.810059,349.832031 
	C896.246399,350.497009 904.775574,349.957825 913.263916,349.996979 
	C920.535522,350.030548 924.003235,353.382904 924.013855,360.567596 
	C924.051086,385.700073 924.021240,410.832642 924.002808,436.403320 
z"/>
<path fill="#080808" opacity="1.000000" stroke="none" 
	d="
M123.992363,812.488281 
	C125.669189,805.087646 129.118301,802.052917 136.085159,802.025085 
	C157.233826,801.940491 178.383377,801.930115 199.531830,802.037720 
	C206.542999,802.073425 211.472763,806.371399 211.527954,813.359314 
	C211.698914,835.001221 211.572205,856.650085 211.182022,878.289368 
	C211.061539,884.969910 206.136124,888.973022 199.298386,888.990112 
	C177.983017,889.043274 156.667343,889.039490 135.351944,888.991394 
	C128.394119,888.975647 124.012711,884.445984 124.004028,877.378784 
	C123.977638,855.896667 123.992859,834.414490 123.992363,812.488281 
z"/>
</svg>